A.Cinderella.Story.Once.Upon.a.Song.2011.DVDRip.XVID.AC3.HQ.Hive-CM8


Thx Hive

CM8 Doing It Right The First Time :D


Source: R1 DVD-R

Encode:
DVD was very nice, also has imdb vote of 8.0 - looks like a good movie.
Added sharpness, rgb, denoise
enjoy

Video: 720x400 @bitrate 1800 2pass
Audio: English AC3 5.1 @384
Sample: yes, included

 
http://www.imdb.com/title/tt1814614/


General
Format : AVI
Format/Info : Audio Video Interleave
File size : 1.35 GiB
Duration : 1h 28mn
Overall bit rate : 2 192 Kbps
Writing application : Nandub v1.0rc2
Writing library : Nandub build 1853/release

Video
ID : 0
Format : MPEG-4 Visual
Format profile : Advanced Simple@L5
Format settings, BVOP : 1
Format settings, QPel : Yes
Format settings, GMC : No warppoints
Format settings, Matrix : Default (H.263)
Muxing mode : Packed bitstream
Codec ID : XVID
Codec ID/Hint : XviD
Duration : 1h 28mn
Bit rate : 1 799 Kbps
Width : 720 pixels
Height : 400 pixels
Display aspect ratio : 16:9
Frame rate : 23.976 fps
Color space : YUV
Chroma subsampling : 4:2:0
Bit depth : 8 bits
Scan type : Progressive
Compression mode : Lossy
Bits/(Pixel*Frame) : 0.261
Stream size : 1.11 GiB (82%)
Writing library : XviD 1.2.1 (UTC 2008-12-04)

Audio
ID : 1
Format : AC-3
Format/Info : Audio Coding 3
Mode extension : CM (complete main)
Codec ID : 2000
Duration : 1h 28mn
Bit rate mode : Constant
Bit rate : 384 Kbps
Channel(s) : 6 channels
Channel positions : Front: L C R, Side: L R, LFE
Sampling rate : 48.0 KHz
Bit depth : 16 bits
Compression mode : Lossy
Stream size : 243 MiB (18%)
Alignment : Split accross interleaves
Interleave, duration : 42 ms (1.00 video frame)
Interleave, preload duration : 500 ms


Plot:

A modern retelling of the timeless tale of a resourceful and
beleaguered young woman whose dreams do come true.


Cast:

Lucy Hale ... Katie Gibbs
Missi Pyle ... Gail Van Ravensway
Megan Park ... Beverly Van Ravensway
Freddie Stroma ... Luke


Screens:

 
http://www.pix2links.com/images/40230611421322202203.png
    	 
http://www.pix2links.com/images/20475170795440062846.png
    	 
http://www.pix2links.com/images/23138807486990286641.png


ENJOY!